<?xml version="1.0" encoding="utf-8"?><svg xmlns="http://www.w3.org/2000/svg" width="80" height="50" preserveAspectRatio="xMidYMid" xmlns:xlink="http://www.w3.org/1999/xlink" style="margin-right:-2px;display:block;background-repeat-y:initial;background-repeat-x:initial;animation-play-state:paused" ><style type="text/css" style="animation-play-state:paused" >text {
    text-anchor: middle; font-size: 50px; opacity: 0;
  }</style>


<g style="transform-origin:40px 25px;transform:matrix(1.38889, 0, 0, 1.38889, 0, 0);animation-play-state:paused" ><g transform="translate(40,25)" style="transform:matrix(1, 0, 0, 1, 40, 25);animation-play-state:paused" ><g transform="translate(0,0)" style="transform:matrix(1, 0, 0, 1, 0, 0);animation-play-state:paused" ><g class="path" style="transform-origin:-14.705px 2.66855px;transform:matrix(1.02861, 0, 0, 1.02861, 0, 0);animation-timing-function:linear;animation-play-state:paused;animation-name:breath-c5992c01-77c8-4bae-a664-36ce9fec5530;animation-iteration-count:infinite;animation-fill-mode:forwards;animation-duration:7.14286s;animation-delay:-3.53571s" ><path d="M2.63 8.21L2.63-13.93L2.63-13.93Q2.63-15.23 2.45-17.78L2.45-17.78L5.11-18.14L5.44-16.20L5.44-16.20Q6.16-16.81 6.93-17.30L6.93-17.30L6.93-17.30Q7.70-17.78 8.62-18.13L8.62-18.13L8.62-18.13Q9.54-18.47 10.58-18.47L10.58-18.47L10.58-18.47Q12.06-18.47 13.37-17.96L13.37-17.96L13.37-17.96Q14.69-17.46 15.68-16.34L15.68-16.34L15.68-16.34Q16.67-15.23 17.24-13.45L17.24-13.45L17.24-13.45Q17.82-11.66 17.82-9.07L17.82-9.07L17.82-9.07Q17.82-6.44 17.05-4.63L17.05-4.63L17.05-4.63Q16.27-2.81 15.03-1.67L15.03-1.67L15.03-1.67Q13.79-0.54 12.22-0.04L12.22-0.04L12.22-0.04Q10.66 0.47 9.04 0.47L9.04 0.47L9.04 0.47Q7.31 0.43 5.51 0.04L5.51 0.04L5.51 7.85L2.63 8.21zM9.04-2.05L9.04-2.05L9.04-2.05Q10.55-2.05 11.63-2.59L11.63-2.59L11.63-2.59Q12.71-3.13 13.41-4.09L13.41-4.09L13.41-4.09Q14.11-5.04 14.44-6.28L14.44-6.28L14.44-6.28Q14.76-7.52 14.76-8.93L14.76-8.93L14.76-8.93Q14.76-10.19 14.53-11.45L14.53-11.45L14.53-11.45Q14.29-12.71 13.77-13.70L13.77-13.70L13.77-13.70Q13.25-14.69 12.38-15.32L12.38-15.32L12.38-15.32Q11.52-15.95 10.26-15.95L10.26-15.95L10.26-15.95Q9.32-15.95 8.50-15.61L8.50-15.61L8.50-15.61Q7.67-15.26 6.93-14.78L6.93-14.78L6.93-14.78Q6.19-14.29 5.51-13.68L5.51-13.68L5.51-2.63L5.51-2.63Q5.90-2.48 6.39-2.36L6.39-2.36L6.39-2.36Q6.88-2.23 7.54-2.14L7.54-2.14L7.54-2.14Q8.21-2.05 9.04-2.05" fill="#5e6f7b" stroke="none" stroke-width="none" transform="translate(-24.839996337890625,7.798551101684571)" style="transform:matrix(1, 0, 0, 1, -24.84, 7.79855);fill:rgb(94, 111, 123);animation-play-state:paused" ></path></g>
<g class="path" style="transform-origin:-0.554996px -1.25645px;transform:matrix(1.00717, 0, 0, 1.00717, 0, 0);animation-timing-function:linear;animation-play-state:paused;animation-name:breath-c5992c01-77c8-4bae-a664-36ce9fec5530;animation-iteration-count:infinite;animation-fill-mode:forwards;animation-duration:7.14286s;animation-delay:-2.35714s" ><path d="M25.49 0L25.49-14.80L20.77-13.90L20.20-16.34L26.60-18.11L28.37-18.11L28.37 0L25.49 0" fill="#5e6f7b" stroke="none" stroke-width="none" transform="translate(-24.839996337890625,7.798551101684571)" style="transform:matrix(1, 0, 0, 1, -24.84, 7.79855);fill:rgb(131, 181, 183);animation-play-state:paused" ></path></g>
<g class="path" style="transform-origin:11.325px -1.25645px;transform:matrix(0.937705, 0, 0, 0.937705, 0, 0);animation-timing-function:linear;animation-play-state:paused;animation-name:breath-c5992c01-77c8-4bae-a664-36ce9fec5530;animation-iteration-count:infinite;animation-fill-mode:forwards;animation-duration:7.14286s;animation-delay:-1.17857s" ><path d="M37.37 0L37.37-14.80L32.65-13.90L32.08-16.34L38.48-18.11L40.25-18.11L40.25 0L37.37 0" fill="#5e6f7b" stroke="none" stroke-width="none" transform="translate(-24.839996337890625,7.798551101684571)" style="transform:matrix(1, 0, 0, 1, -24.84, 7.79855);fill:rgb(150, 176, 199);animation-play-state:paused" ></path></g>
<g class="path" style="transform-origin:23.205px -1.25645px;transform:matrix(0.91, 0, 0, 0.91, 0, 0);animation-timing-function:linear;animation-play-state:paused;animation-name:breath-c5992c01-77c8-4bae-a664-36ce9fec5530;animation-iteration-count:infinite;animation-fill-mode:forwards;animation-duration:7.14286s" ><path d="M49.25 0L49.25-14.80L44.53-13.90L43.96-16.34L50.36-18.11L52.13-18.11L52.13 0L49.25 0" fill="#5e6f7b" stroke="none" stroke-width="none" transform="translate(-24.839996337890625,7.798551101684571)" style="transform:matrix(1, 0, 0, 1, -24.84, 7.79855);fill:rgb(186, 189, 191);animation-play-state:paused" ></path></g></g></g></g></svg>